<svg width="25" height="23" viewBox="0 0 25 23" fill="none" xmlns="http://www.w3.org/2000/svg">
<path d="M20.9375 11.5317V5.75658C20.9375 3.90892 19.4911 2.41402 17.7232 2.41402H16.75C16.3571 1.0213 15.125 0 13.6607 0H11.3393C9.875 0 8.64285 1.0213 8.24999 2.41402H7.27681C5.50891 2.41402 4.06249 3.90892 4.06249 5.75658V11.5317C1.65176 12.4788 0 13.8901 0 15.7284C0 17.9382 2.51786 19.8045 6.66073 20.7237L5.9464 21.2622C5.29464 21.7543 5.53573 22.8313 6.33926 22.9613C6.57142 22.9984 6.82144 22.9427 7.01784 22.7942L9.43751 20.9651C9.84824 20.6587 9.9375 20.0644 9.64285 19.6466L7.88394 17.1212C7.74106 16.9169 7.52678 16.7869 7.28569 16.7405C6.49109 16.6105 5.93752 17.5483 6.41071 18.2353L6.85714 18.876C3.55355 18.0961 1.78571 16.7405 1.78571 15.7284C1.78571 15.0321 2.60713 14.2057 4.11606 13.5094C4.34821 15.1064 5.66962 16.3412 7.27681 16.3412H17.7232C19.3304 16.3412 20.6518 15.1064 20.8839 13.5094C22.3929 14.2057 23.2143 15.0321 23.2143 15.7284C23.2143 16.8705 20.9643 18.4489 16.8036 19.1359C16.3215 19.2195 15.991 19.6931 16.0625 20.2037C16.1339 20.6587 16.5179 20.9836 16.9464 20.9836C16.9911 20.9836 17.0357 20.9836 17.0893 20.9743C21.9643 20.1665 25 18.1611 25 15.7284C25 13.8901 23.3482 12.4788 20.9375 11.5317ZM12.5 13.5558C10.2857 13.5558 8.48214 11.6803 8.48214 9.37762C8.48214 7.07501 10.2857 5.19946 12.5 5.19946C14.7143 5.19946 16.5179 7.07501 16.5179 9.37762C16.5179 11.6803 14.7143 13.5558 12.5 13.5558Z" fill="#C1F600"/>
<path d="M12.4997 11.699C13.7325 11.699 14.7319 10.6598 14.7319 9.37784C14.7319 8.09588 13.7325 7.05664 12.4997 7.05664C11.2669 7.05664 10.2676 8.09588 10.2676 9.37784C10.2676 10.6598 11.2669 11.699 12.4997 11.699Z" fill="#C1F600"/>
</svg>
